# xmcd
#
# Track frame offsets:
# 150
# 11634
# 22758
# 38306
# 53936
# 67088
# 82340
# 97024
# 110736
# 126237
# 145105
# 159796
# 176010
# 191530
# 204041
# 219001
# 233824
# 250571
# 263217
# 278596
# 290635
# 301457
# 315290
#
# Disc length: 4367 seconds
#
#
# Revision: 0
# Processed by: cddbd v1.4PL0 Copyright (c) Steve Scherf et al.
# Submitted via: FreeRIP 2.51 
#
DISCID=35110d17
DTITLE=GRUPO INPACTO DE MONTEMORELOS - GRUPO INPACTO DE MONTEMORELOS
DYEAR=2003
DGENRE=BALADA NORTEÑA
TTITLE0=MIS LAGRIMAS AMARGAS
TTITLE1=EL EMBRUJADO
TTITLE2=MI LLAMADA
TTITLE3=CUANDO TE ECHO DE MENOS
TTITLE4=SIN ELLA YO NO SOY NADA
TTITLE5=EN DONDE ESTES
TTITLE6=SE LE VE
TTITLE7=DEJENLA QUE BAILE
TTITLE8=DEMENTE
TTITLE9=QUE LE VES A EL
TTITLE10=ENDULZAME EL CAFE MARIA
TTITLE11=FLOR
TTITLE12=HABLAME DE TI
TTITLE13=TEQUILA
TTITLE14=HABLEMOS
TTITLE15=LA PROMESA
TTITLE16=SI TIVIERA UNA MONEDA
TTITLE17=UN RAMO DE ROSAS
TTITLE18=LAS BONITAS NO SON FIELES
TTITLE19=QUIZAS QUIAZAS TE PERDONE
TTITLE20=MARIA DOLORES
TTITLE21=POR SER IGUALES
TTITLE22=AYER ME DIJIERON LOCO
EXTD=
EXTT0=
EXTT1=
EXTT2=
EXTT3=
EXTT4=
EXTT5=
EXTT6=
EXTT7=
EXTT8=
EXTT9=
EXTT10=
EXTT11=
EXTT12=
EXTT13=
EXTT14=
EXTT15=
EXTT16=
EXTT17=
EXTT18=
EXTT19=
EXTT20=
EXTT21=
EXTT22=
PLAYORDER=
